HIERARCHY
ROOT SpineBase
{
  OFFSET 0.000000 0.000000 0.000000
  CHANNELS 6 Xposition Yposition Zposition Zrotation Xrotation Yrotation
  JOINT SpineMid
  {
    OFFSET 0.000000 18.274225 0.000000
    CHANNELS 3 Zrotation Xrotation Yrotation
    JOINT SpineShoulder
    {
      OFFSET 0.079194 14.055964 -0.502088
      CHANNELS 3 Zrotation Xrotation Yrotation
      JOINT Neck
      {
        OFFSET -0.003307 4.715135 -0.424359
        CHANNELS 3 Zrotation Xrotation Yrotation
        JOINT Head
        {
          OFFSET -0.787044 12.844388 0.614280
          CHANNELS 3 Zrotation Xrotation Yrotation
          End Site
          {
            OFFSET 0 0 0
          }
        }
      }
      JOINT ShoulderLeft
      {
        OFFSET -9.406354 -3.769367 -2.875678
        CHANNELS 3 Zrotation Xrotation Yrotation
        JOINT ElbowLeft
        {
          OFFSET -5.935125 -19.809231 -3.987363
          CHANNELS 3 Zrotation Xrotation Yrotation
          JOINT WristLeft
          {
            OFFSET 9.136521 -11.420990 -19.492775
            CHANNELS 3 Zrotation Xrotation Yrotation
            JOINT HandLeft
            {
              OFFSET 2.640307 -3.855420 -6.623141
              CHANNELS 3 Zrotation Xrotation Yrotation
              JOINT HandTipLeft
              {
                OFFSET -0.750823 -4.587235 0.423242
                CHANNELS 3 Zrotation Xrotation Yrotation
                End Site
                {
                  OFFSET 0 0 0
                }
              }
              JOINT ThumbLeft
              {
                OFFSET -0.781853 -4.123902 -0.574335
                CHANNELS 3 Zrotation Xrotation Yrotation
                End Site
                {
                  OFFSET 0 0 0
                }
              }
            }
          }
        }
      }
      JOINT ShoulderRight
      {
        OFFSET 8.783041 -5.981025 -3.542328
        CHANNELS 3 Zrotation Xrotation Yrotation
        JOINT ElbowRight
        {
          OFFSET 2.986086 -19.585582 -1.510519
          CHANNELS 3 Zrotation Xrotation Yrotation
          JOINT WristRight
          {
            OFFSET -7.923495 -14.662812 -5.713508
            CHANNELS 3 Zrotation Xrotation Yrotation
            JOINT HandRight
            {
              OFFSET -3.009079 2.495876 -1.592507
              CHANNELS 3 Zrotation Xrotation Yrotation
              JOINT HandTipRight
              {
                OFFSET -1.387817 -0.578953 -2.093275
                CHANNELS 3 Zrotation Xrotation Yrotation
                End Site
                {
                  OFFSET 0 0 0
                }
              }
              JOINT ThumbRight
              {
                OFFSET -1.152370 0.265364 -2.003496
                CHANNELS 3 Zrotation Xrotation Yrotation
                End Site
                {
                  OFFSET 0 0 0
                }
              }
            }
          }
        }
      }
    }
  }
  JOINT HipLeft
  {
    OFFSET -4.219324 2.101962 -2.900109
    CHANNELS 3 Zrotation Xrotation Yrotation
    JOINT KneeLeft
    {
      OFFSET -8.787734 -26.266994 -8.311346
      CHANNELS 3 Zrotation Xrotation Yrotation
      JOINT AnkleLeft
      {
        OFFSET -2.340259 -32.397374 7.190462
        CHANNELS 3 Zrotation Xrotation Yrotation
        JOINT FootLeft
        {
          OFFSET 5.385803 -8.157448 -2.079796
          CHANNELS 3 Zrotation Xrotation Yrotation
          End Site
          {
            OFFSET 0 0 0
          }
        }
      }
    }
  }
  JOINT HipRight
  {
    OFFSET 3.848811 0.632741 -2.568745
    CHANNELS 3 Zrotation Xrotation Yrotation
    JOINT KneeRight
    {
      OFFSET -27.847346 12.928576 -7.224090
      CHANNELS 3 Zrotation Xrotation Yrotation
      JOINT AnkleRight
      {
        OFFSET 0.592070 -46.202921 10.129177
        CHANNELS 3 Zrotation Xrotation Yrotation
        JOINT FootRight
        {
          OFFSET -4.198677 -8.681734 -4.954159
          CHANNELS 3 Zrotation Xrotation Yrotation
          End Site
          {
            OFFSET 0 0 0
          }
        }
      }
    }
  }
}
MOTION
Frames: 6
Frame Time: 0.033333
28.264791 64.719854 324.913611 -0.000000 0.000000 -2.351850 -0.000000 0.000000 2.351850 -0.000000 0.000000 0.000000 -0.000000 0.000000 0.000000 0.000000 0.000000 0.000000 -0.000000 0.000000 0.000000 -0.000000 0.000000 0.000000 -0.000000 0.000000 0.000000 -0.000000 0.000000 0.000000 0.000000 0.000000 0.000000 0.000000 0.000000 0.000000 -0.000000 0.000000 0.000000 -0.000000 0.000000 0.000000 -0.000000 0.000000 0.000000 -0.000000 0.000000 0.000000 0.000000 0.000000 0.000000 0.000000 0.000000 0.000000 -0.000000 0.000000 2.351850 -0.000000 0.000000 0.000000 -0.000000 0.000000 0.000000 0.000000 0.000000 0.000000 -0.000000 0.000000 2.351850 -0.000000 0.000000 0.000000 -0.000000 0.000000 0.000000 0.000000 0.000000 0.000000
28.484999 66.224838 325.069917 0.604347 -0.279865 -2.725062 -0.616975 0.250801 2.727889 -0.000000 0.000000 0.000000 -1.010359 0.479808 0.081981 0.000000 0.000000 0.000000 -0.000000 0.000000 0.000000 -0.000000 0.000000 0.000000 -0.000000 0.000000 0.000000 -0.000000 0.000000 0.000000 0.000000 0.000000 0.000000 0.000000 0.000000 0.000000 -0.000000 0.000000 0.000000 -0.000000 0.000000 0.000000 7.071291 -1.973919 2.081381 -4.029548 -1.878054 -3.854608 0.000000 0.000000 0.000000 0.000000 0.000000 0.000000 -0.881567 -0.836490 3.186618 0.324674 1.070890 -0.463116 -0.000000 0.000000 0.000000 0.000000 0.000000 0.000000 3.242663 -0.609537 2.632617 -3.816605 1.035217 0.141852 -0.000000 0.000000 0.000000 0.000000 0.000000 0.000000
28.639352 67.477867 325.206037 1.100089 -0.498036 -3.057050 0.190384 -0.093148 3.111464 -0.498844 0.140869 0.022777 -2.624111 1.208563 0.093254 0.000000 0.000000 0.000000 -0.785681 0.461764 -0.067247 -0.000000 0.000000 0.000000 -0.000000 0.000000 0.000000 -0.000000 0.000000 0.000000 0.000000 0.000000 0.000000 0.000000 0.000000 0.000000 0.085695 1.275156 -0.023484 -1.684056 -0.637838 0.147948 13.944011 -3.392924 4.116490 -7.985843 -3.631581 -6.190567 0.000000 0.000000 0.000000 0.000000 0.000000 0.000000 -1.970538 -0.972918 3.810463 2.163628 0.940745 -0.482065 -1.229151 0.401209 -0.297493 0.000000 0.000000 0.000000 6.134755 -1.117677 2.950808 -6.225953 1.350280 0.451191 -0.942805 0.575467 -0.194824 0.000000 0.000000 0.000000
28.727851 68.478941 325.321971 1.457496 -0.639543 -3.358668 0.314564 -0.145484 3.435073 -0.679798 0.205255 0.032341 -3.565076 1.400095 0.119814 0.000000 0.000000 0.000000 -1.081894 0.600665 -0.091324 -0.000000 0.000000 0.000000 -0.000000 0.000000 0.000000 -0.000000 0.000000 0.000000 0.000000 0.000000 0.000000 0.000000 0.000000 0.000000 0.077982 1.761661 -0.027387 -2.334983 -0.909565 0.200524 19.027210 -3.896989 6.188273 -11.697450 -4.747509 -6.953024 0.000000 0.000000 0.000000 0.000000 0.000000 0.000000 -3.253915 -0.446720 4.247343 4.159872 -0.646118 -0.262064 -2.336581 1.501090 -0.597343 0.000000 0.000000 0.000000 8.668025 -1.533964 3.309649 -8.733141 1.868664 0.605668 -1.290137 0.788791 -0.264299 0.000000 0.000000 0.000000
28.750494 69.228061 325.417718 1.650463 -0.691687 -3.638840 0.465591 -0.204099 3.730560 -0.790387 0.254072 0.040689 -4.253750 1.314640 0.121364 0.000000 0.000000 0.000000 -1.309974 0.674771 -0.109773 -0.000000 0.000000 0.000000 -0.000000 0.000000 0.000000 0.760501 -0.401869 0.138718 0.000000 0.000000 0.000000 0.000000 0.000000 0.000000 0.035972 2.141329 -0.022661 -2.853215 -1.147120 0.242057 22.515631 -3.615257 8.048627 -14.911009 -5.112839 -6.496657 0.000000 0.000000 0.000000 0.000000 0.000000 0.000000 -4.719596 0.725433 4.525833 6.821473 -3.641687 0.394080 -3.797171 3.282217 -0.975246 0.000000 0.000000 0.000000 10.850750 -1.869530 3.712372 -10.812617 2.283151 0.687553 -1.548327 0.947956 -0.315132 0.000000 0.000000 0.000000
28.707282 69.725226 325.493278 1.659824 -0.645716 -3.905146 0.645123 -0.268880 4.004031 -0.815888 0.281068 0.047872 -4.688049 0.952127 0.093606 0.000000 0.000000 0.000000 -1.467200 0.681588 -0.122916 -0.000000 0.000000 0.000000 -0.000000 0.000000 0.000000 0.914687 -0.519663 0.173755 0.000000 0.000000 0.000000 0.000000 0.000000 0.000000 -0.039833 2.410019 -0.007547 -3.235904 -1.348946 0.274700 24.236176 -2.572782 9.635118 -17.308013 -5.029748 -5.391346 0.000000 0.000000 0.000000 0.000000 0.000000 0.000000 -6.359909 2.544097 4.681856 10.241082 -8.043162 1.659122 -5.615180 5.789015 -1.392279 0.000000 0.000000 0.000000 12.697642 -2.134470 4.162769 -12.463644 2.598525 0.682974 -1.713489 1.050246 -0.347279 0.000000 0.000000 0.000000
